<?xml version="1.0" standalone="no"?>
<!DOCTYPE svg PUBLIC "-//W3C//DTD SVG 20010904//EN"
 "http://www.w3.org/TR/2001/REC-SVG-20010904/DTD/svg10.dtd">
<svg version="1.0" xmlns="http://www.w3.org/2000/svg"
 width="580.000000pt" height="580.000000pt" viewBox="0 0 580.000000 580.000000"
 preserveAspectRatio="xMidYMid meet">
<metadata>
Created by potrace 1.14, written by Peter Selinger 2001-2017
</metadata>
<g transform="translate(0.000000,580.000000) scale(0.100000,-0.100000)"
fill="#70c559" stroke="none">
<path d="M3570 5526 l0 -244 -120 2 c-66 0 -120 -3 -120 -7 0 -4 -8 -4 -17 0
-15 7 -115 9 -210 4 -22 -1 -22 -3 -23 -178 -1 -98 -1 -189 0 -203 1 -14 2
-29 2 -35 0 -5 -1 -130 -2 -277 -1 -147 1 -271 3 -275 6 -10 220 -8 236 1 6 4
11 4 11 -1 0 -6 133 -9 220 -4 13 1 15 62 15 484 l1 482 244 0 245 0 0 -482
c1 -427 -1 -483 -15 -484 -8 -1 -112 -2 -230 -4 -118 -1 -222 -3 -230 -3 -13
-2 -15 -36 -15 -243 l0 -242 -485 -1 -485 -1 -1 -732 -1 -731 241 1 241 2 2
480 c1 264 2 483 2 488 1 4 111 7 246 7 l245 0 0 -1220 0 -1220 -247 2 -247 3
0 485 0 486 -110 -1 c-61 0 -117 -4 -123 -8 -7 -5 -13 -4 -13 0 0 13 -473 12
-482 -1 -5 -8 -8 -8 -8 0 0 14 -229 14 -231 0 -5 -32 -4 -476 1 -477 3 -1 109
-2 237 -3 127 0 234 -4 238 -8 4 -3 7 -222 7 -485 l-1 -479 609 -1 c438 0 607
3 603 11 -5 8 -2 7 8 0 16 -13 231 -16 239 -4 3 5 5 222 4 484 0 329 3 476 10
477 6 1 58 2 116 3 58 1 111 5 118 9 6 5 12 4 12 0 0 -5 53 -9 118 -9 l117 1
0 -687 0 -688 486 0 486 0 0 200 c0 140 -3 200 -11 201 -6 0 -116 1 -243 1
l-233 1 0 732 0 732 -117 -1 c-70 0 -121 -4 -125 -11 -5 -7 -8 -7 -8 1 0 7
-111 10 -363 10 l-362 -1 -1 733 0 732 488 0 488 0 0 244 0 244 223 1 c122 0
232 0 243 0 l22 1 0 484 c0 353 -3 486 -12 488 -6 2 -114 4 -241 3 l-230 -1 0
-481 c-1 -265 -4 -485 -7 -489 -4 -3 -224 -7 -490 -8 l-484 -1 0 243 c-1 133
2 243 5 244 3 0 111 2 238 3 128 1 236 4 239 8 3 3 7 222 8 486 l1 481 -25 1
c-14 0 -124 2 -245 2 l-220 2 -1 235 c-1 129 -2 238 -3 242 -1 4 -109 8 -241
8 l-240 0 0 -244z"/>
<path d="M639 4785 c-1 -15 -1 -458 0 -470 1 -7 241 -9 704 -8 386 1 714 2
730 2 l27 1 -2 242 -3 242 -727 1 c-479 0 -728 -3 -729 -10z"/>
<path d="M150 3574 l0 -244 730 0 730 0 0 244 0 244 -365 0 c-268 0 -363 -3
-358 -12 5 -8 3 -8 -8 0 -20 16 -471 16 -481 0 -6 -8 -8 -8 -8 1 0 8 -36 11
-120 11 l-120 0 0 -244z"/>
<path d="M167 2842 c-15 -3 -17 -27 -17 -247 l0 -243 240 -1 c184 0 240 2 240
12 0 9 2 9 8 0 10 -16 972 -16 973 1 2 59 -3 471 -6 475 -8 7 -188 7 -212 -1
-13 -4 -23 -4 -23 0 0 9 -473 7 -488 -2 -7 -4 -12 -4 -12 1 0 7 -198 10 -225
3 -5 -1 -12 -1 -15 0 -9 3 -446 5 -463 2z"/>
<path d="M150 1620 l0 -245 489 0 c301 0 487 3 484 9 -4 5 -1 6 8 0 8 -5 119
-9 247 -9 l232 -1 0 246 0 246 -730 0 -730 0 0 -246z"/>
<path d="M639 888 c-5 -19 0 -470 5 -476 13 -12 1216 -11 1209 2 -5 8 -3 8 8
0 8 -6 61 -11 127 -11 l112 -1 0 244 0 244 -730 0 c-401 0 -730 -1 -731 -2z"/>
</g>
</svg>
